<svg xmlns="http://www.w3.org/2000/svg" width="1200" height="630" viewBox="0 0 1200 630" role="img" aria-labelledby="title description"><defs>
    <linearGradient id="background" x1="0" y1="0" x2="1" y2="1"><stop offset="0" stop-color="#061528"/><stop offset="0.58" stop-color="#08244d"/><stop offset="1" stop-color="#0a5d78"/></linearGradient>
    <linearGradient id="accent" x1="0" y1="0" x2="1" y2="1"><stop offset="0" stop-color="#2ea9ff"/><stop offset="1" stop-color="#54e5e7"/></linearGradient>
    <filter id="shadow" x="-20%" y="-20%" width="140%" height="160%"><feDropShadow dx="0" dy="12" stdDeviation="14" flood-color="#020b17" flood-opacity="0.42"/></filter>
    <style>.title{font-family:-apple-system,BlinkMacSystemFont,"Helvetica Neue","Hiragino Sans",sans-serif;font-weight:760;text-anchor:middle}.label{font-family:-apple-system,BlinkMacSystemFont,"Helvetica Neue","Hiragino Sans",sans-serif;font-weight:720;text-anchor:middle}.detail{font-family:-apple-system,BlinkMacSystemFont,"Helvetica Neue","Hiragino Sans",sans-serif;font-weight:520;text-anchor:middle}.left{font-family:-apple-system,BlinkMacSystemFont,"Helvetica Neue","Hiragino Sans",sans-serif;font-weight:650}.code{font-family:ui-monospace,SFMono-Regular,Menlo,monospace;font-weight:620;text-anchor:middle}</style>
  </defs>
  <rect width="1200" height="630" fill="url(#background)"/>
  <circle cx="70" cy="60" r="190" fill="#31d4dc" opacity="0.08"/><circle cx="1145" cy="575" r="240" fill="#2ea9ff" opacity="0.10"/>
  <title id="title">llms.txt v2</title><desc id="description">Un flux en cinq étapes relie un site Web à un flux de travail d’IA en passant par la découverte llms.txt v2, des sources choisies et un Pack SourceShelf.</desc><text class="title" x="600" y="64" fill="#f6fbff" font-size="43">llms.txt v2</text>
    <text class="detail" x="600" y="105" fill="#a8dcec" font-size="23">Comment les agents d’IA découvrent les connaissances Web</text>
    <g fill="none" stroke="#7beff4" stroke-width="6" stroke-linecap="round" stroke-linejoin="round"><path d="M235 300h28"/><path d="M250 288l14 12-14 12"/><path d="M470 300h28"/><path d="M485 288l14 12-14 12"/><path d="M705 300h28"/><path d="M720 288l14 12-14 12"/><path d="M940 300h28"/><path d="M955 288l14 12-14 12"/></g>
    <g filter="url(#shadow)"><rect x="35" y="168" width="200" height="230" rx="28" fill="#0c2949" stroke="#63cddd" stroke-opacity=".72"/><rect x="89" y="214" width="92" height="66" rx="10" fill="#07182d" stroke="#8bc8ea" stroke-width="3"/><path d="M89 234h92M102 254h64" stroke="#7beff4" stroke-width="5" stroke-linecap="round"/><circle cx="103" cy="224" r="3" fill="#54e5e7"/><text class="label" x="135" y="337" fill="#f6fbff" font-size="24">Site Web</text><text class="detail" x="135" y="368" fill="#9fdce8" font-size="19">Pages pour les humains</text></g><g filter="url(#shadow)"><rect x="270" y="168" width="200" height="230" rx="28" fill="#0c2949" stroke="#63cddd" stroke-opacity=".72"/><path d="M339 202h54l28 28v65H339z" fill="#07182d" stroke="#8bc8ea" stroke-width="3"/><path d="M393 202v29h28M354 253h49M354 271h38" fill="none" stroke="#7beff4" stroke-width="5" stroke-linecap="round"/><text class="label" x="370" y="337" fill="#f6fbff" font-size="24">llms.txt v2</text><text class="detail" x="370" y="368" fill="#9fdce8" font-size="19">Découverte explicite</text></g><g filter="url(#shadow)"><rect x="505" y="168" width="200" height="230" rx="28" fill="#0c2949" stroke="#63cddd" stroke-opacity=".72"/><rect x="564" y="204" width="82" height="88" rx="12" fill="#07182d" stroke="#8bc8ea" stroke-width="3"/><path d="M578 229l7 7 12-15M578 257l7 7 12-15M606 229h25M606 257h25" fill="none" stroke="#7beff4" stroke-width="5" stroke-linecap="round" stroke-linejoin="round"/><text class="label" x="605" y="337" fill="#f6fbff" font-size="24">Sources choisies</text><text class="detail" x="605" y="368" fill="#9fdce8" font-size="17">Markdown utile</text></g><g filter="url(#shadow)"><rect x="740" y="168" width="200" height="230" rx="28" fill="#0e3658" stroke="#54e5e7" stroke-opacity=".72"/><path d="M795 226h40l12-16h40l12 16v62H795z" fill="#07182d" stroke="#8bc8ea" stroke-width="3"/><path d="M813 249h68M813 267h48" stroke="#7beff4" stroke-width="5" stroke-linecap="round"/><text class="label" x="840" y="337" fill="#f6fbff" font-size="24">Pack SourceShelf</text><text class="detail" x="840" y="368" fill="#9fdce8" font-size="17">Privé et portable</text></g><g filter="url(#shadow)"><rect x="975" y="168" width="200" height="230" rx="28" fill="#0c2949" stroke="#63cddd" stroke-opacity=".72"/><rect x="1025" y="207" width="100" height="82" rx="13" fill="#07182d" stroke="#8bc8ea" stroke-width="3"/><path d="M1025 230h100M1075 230v59M1039 248h21M1039 265h28M1088 247h23M1088 264h17" stroke="#7beff4" stroke-width="4" stroke-linecap="round"/><text class="label" x="1075" y="337" fill="#f6fbff" font-size="20">Flux de travail IA</text><text class="detail" x="1075" y="368" fill="#9fdce8" font-size="19">Utilisable partout</text></g>
    <g><rect x="162" y="450" width="152" height="40" rx="20" fill="#0e3457" stroke="#54e5e7" stroke-opacity=".46"/><text class="label" x="238" y="477" fill="#bdfaff" font-size="18">Découvrir</text></g><g><rect x="397" y="450" width="152" height="40" rx="20" fill="#0e3457" stroke="#54e5e7" stroke-opacity=".46"/><text class="label" x="473" y="477" fill="#bdfaff" font-size="18">Choisir</text></g><g><rect x="632" y="450" width="152" height="40" rx="20" fill="#0e3457" stroke="#54e5e7" stroke-opacity=".46"/><text class="label" x="708" y="477" fill="#bdfaff" font-size="18">Préserver</text></g><g><rect x="867" y="450" width="152" height="40" rx="20" fill="#0e3457" stroke="#54e5e7" stroke-opacity=".46"/><text class="label" x="943" y="477" fill="#bdfaff" font-size="18">Utiliser partout</text></g>
    <text class="label" x="600" y="565" fill="#f6fbff" font-size="23">SourceShelf</text></svg>
